<svg viewBox="0 0 110 155" fill="none" xmlns="http://www.w3.org/2000/svg" style="background:#ffffff; border-radius:4px; width:100%; height:100%;">
  <!-- White background rect -->
  <rect width="110" height="155" fill="#ffffff" />
  
  <!-- Cream bottom background wave -->
  <path d="M 0 155 V 146 C 31 149, 63 141, 84 145 C 97 147, 105 142, 110 140 V 155 Z" fill="var(--preview-rose, #fdf8ec)" />
  
  <!-- Sutil gold/yellow bottom wave -->
  <path d="M 0 155 V 149 C 26 151, 52 144, 79 148 C 94 149, 105 145, 110 143 V 155 Z" fill="var(--preview-accent, #f4b844)" opacity="0.15" />
  
  <!-- Cream top background wave -->
  <path d="M 0 0 H 110 V 15 C 80 12, 55 20, 0 48 Z" fill="var(--preview-rose, #fdf8ec)" />
  
  <!-- Layered light gold/yellow top wave -->
  <path d="M 0 0 H 110 V 8 C 80 6, 50 12, 0 38 Z" fill="var(--preview-accent, #f4b844)" opacity="0.6" />
  
  <!-- Main gold/yellow top wave (occupying photo space on left, above title on right) -->
  <path d="M 0 0 H 110 V 11 C 80 8, 55 16, 0 43 Z" fill="var(--preview-accent, #f4b844)" />
  
  <!-- Photo (centered on the wave left) -->
  <circle cx="20" cy="25" r="10" fill="#ffffff" stroke="var(--preview-accent, #f4b844)" stroke-width="1.5" />
  
  <!-- Header Text -->
  <rect x="42" y="8" width="30" height="2.5" rx="0.5" fill="#777777" />
  <rect x="42" y="13" width="55" height="4.5" rx="1" fill="var(--preview-primary, #222222)" />
  <rect x="42" y="20" width="38" height="4.5" rx="1" fill="var(--preview-primary, #222222)" />

  <!-- Sidebar (Left side, from x=0 to x=38) -->
  <!-- Contact icons -->
  <circle cx="10" cy="50" r="2.5" fill="#ffffff" stroke="var(--preview-accent, #f4b844)" stroke-width="0.75" />
  <rect x="16" y="49.2" width="16" height="1.5" rx="0.5" fill="#718096" />
  
  <circle cx="10" cy="56.5" r="2.5" fill="#ffffff" stroke="var(--preview-accent, #f4b844)" stroke-width="0.75" />
  <rect x="16" y="55.7" width="18" height="1.5" rx="0.5" fill="#718096" />
  
  <circle cx="10" cy="63" r="2.5" fill="#ffffff" stroke="var(--preview-accent, #f4b844)" stroke-width="0.75" />
  <rect x="16" y="62.2" width="15" height="1.5" rx="0.5" fill="#718096" />

  <!-- Skills section -->
  <rect x="6" y="75" width="18" height="2.5" rx="0.5" fill="var(--preview-primary, #222222)" />
  <line x1="6" y1="79" x2="28" y2="79" stroke="var(--preview-accent, #f4b844)" stroke-width="0.75" />
  
  <circle cx="9" cy="85" r="1.2" fill="var(--preview-accent, #f4b844)" />
  <rect x="13" y="84" width="20" height="1.5" rx="0.5" fill="#718096" />
  
  <circle cx="9" cy="90.5" r="1.2" fill="var(--preview-accent, #f4b844)" />
  <rect x="13" y="89.5" width="16" height="1.5" rx="0.5" fill="#718096" />

  <!-- Languages section -->
  <rect x="6" y="101" width="18" height="2.5" rx="0.5" fill="var(--preview-primary, #222222)" />
  <line x1="6" y1="105" x2="28" y2="105" stroke="var(--preview-accent, #f4b844)" stroke-width="0.75" />
  
  <circle cx="9" cy="111" r="1.2" fill="var(--preview-accent, #f4b844)" />
  <rect x="13" y="110" width="18" height="1.5" rx="0.5" fill="#718096" />

  <!-- Main Column (Right side, from x=42 to end) -->
  <!-- Section: Sobre mí -->
  <rect x="42" y="38" width="24" height="2.5" rx="0.5" fill="var(--preview-primary, #222222)" />
  <line x1="42" y1="42" x2="52" y2="42" stroke="var(--preview-accent, #f4b844)" stroke-width="1.2" />
  
  <rect x="42" y="46" width="60" height="1.5" rx="0.5" fill="#718096" />
  <rect x="42" y="49.5" width="55" height="1.5" rx="0.5" fill="#718096" />
  <rect x="42" y="53" width="35" height="1.5" rx="0.5" fill="#718096" />

  <!-- Section: Experiencia -->
  <rect x="42" y="65" width="30" height="2.5" rx="0.5" fill="var(--preview-primary, #222222)" />
  <line x1="42" y1="69" x2="52" y2="69" stroke="var(--preview-accent, #f4b844)" stroke-width="1.2" />
  
  <!-- Experience Item -->
  <rect x="42" y="74" width="28" height="2" rx="0.5" fill="var(--preview-primary, #222222)" />
  <circle cx="85" cy="75" r="0.8" fill="var(--preview-accent, #f4b844)" />
  <rect x="88" y="74" width="12" height="1.5" rx="0.5" fill="var(--preview-accent, #f4b844)" />
  
  <rect x="42" y="78.5" width="35" height="1.5" rx="0.5" fill="#718096" />
  <rect x="42" y="82" width="55" height="1.2" rx="0.3" fill="#cbd5e0" />

  <!-- Section: Educación -->
  <rect x="42" y="93" width="32" height="2.5" rx="0.5" fill="var(--preview-primary, #222222)" />
  <line x1="42" y1="97" x2="52" y2="97" stroke="var(--preview-accent, #f4b844)" stroke-width="1.2" />
  
  <rect x="42" y="102" width="25" height="2" rx="0.5" fill="var(--preview-primary, #222222)" />
  <circle cx="85" cy="103" r="0.8" fill="var(--preview-accent, #f4b844)" />
  <rect x="88" y="102" width="12" height="1.5" rx="0.5" fill="var(--preview-accent, #f4b844)" />
  
  <rect x="42" y="106.5" width="35" height="1.5" rx="0.5" fill="#718096" />
  <rect x="42" y="110" width="58" height="1.2" rx="0.3" fill="#cbd5e0" />
</svg>
